<svg width="26" height="25" viewBox="0 0 26 25" fill="none" xmlns="http://www.w3.org/2000/svg">
<g clip-path="url(#clip0_1_3169)">
<path d="M18.4659 0.012511C18.4128 -0.046864 16.4987 0.0359485 14.8331 1.84376C13.1675 3.65001 13.4237 5.72189 13.4612 5.77501C13.4987 5.82814 15.8362 5.91095 17.3284 3.80939C18.8206 1.70782 18.519 0.0734485 18.4659 0.012511ZM23.644 18.3453C23.569 18.1953 20.0112 16.4172 20.3425 12.9984C20.6737 9.57814 22.9597 8.64064 22.9956 8.53907C23.0315 8.43751 22.0628 7.3047 21.0362 6.73126C20.2825 6.32697 19.4483 6.09534 18.594 6.05314C18.4253 6.04845 17.8393 5.9047 16.6346 6.23439C15.8409 6.45157 14.0518 7.1547 13.5596 7.18282C13.0659 7.21095 11.5971 6.3672 10.0175 6.14376C9.00652 5.94845 7.93465 6.34845 7.16746 6.65626C6.40184 6.96251 4.94559 7.83439 3.92684 10.1516C2.90809 12.4672 3.4409 16.1359 3.82215 17.2766C4.2034 18.4156 4.79871 20.2828 5.81121 21.6453C6.71121 23.1828 7.90496 24.25 8.4034 24.6125C8.90184 24.975 10.3081 25.2156 11.2831 24.7172C12.0675 24.2359 13.4831 23.9594 14.0425 23.9797C14.6003 24 15.7003 24.2203 16.8268 24.8219C17.719 25.1297 18.5628 25.0016 19.4081 24.6578C20.2534 24.3125 21.4768 23.0031 22.905 20.3484C23.4471 19.1141 23.694 18.4469 23.644 18.3453Z" fill="#0868DD"/>
<path d="M18.4659 0.012511C18.4128 -0.046864 16.4987 0.0359485 14.8331 1.84376C13.1675 3.65001 13.4237 5.72189 13.4612 5.77501C13.4987 5.82814 15.8362 5.91095 17.3284 3.80939C18.8206 1.70782 18.519 0.0734485 18.4659 0.012511ZM23.644 18.3453C23.569 18.1953 20.0112 16.4172 20.3425 12.9984C20.6737 9.57814 22.9597 8.64064 22.9956 8.53907C23.0315 8.43751 22.0628 7.3047 21.0362 6.73126C20.2825 6.32697 19.4483 6.09534 18.594 6.05314C18.4253 6.04845 17.8393 5.9047 16.6346 6.23439C15.8409 6.45157 14.0518 7.1547 13.5596 7.18282C13.0659 7.21095 11.5971 6.3672 10.0175 6.14376C9.00652 5.94845 7.93465 6.34845 7.16746 6.65626C6.40184 6.96251 4.94559 7.83439 3.92684 10.1516C2.90809 12.4672 3.4409 16.1359 3.82215 17.2766C4.2034 18.4156 4.79871 20.2828 5.81121 21.6453C6.71121 23.1828 7.90496 24.25 8.4034 24.6125C8.90184 24.975 10.3081 25.2156 11.2831 24.7172C12.0675 24.2359 13.4831 23.9594 14.0425 23.9797C14.6003 24 15.7003 24.2203 16.8268 24.8219C17.719 25.1297 18.5628 25.0016 19.4081 24.6578C20.2534 24.3125 21.4768 23.0031 22.905 20.3484C23.4471 19.1141 23.694 18.4469 23.644 18.3453Z" fill="#0868DD"/>
</g>
<defs>
<clipPath id="clip0_1_3169">
<rect width="25" height="25" fill="white" transform="translate(0.994141)"/>
</clipPath>
</defs>
</svg>
