<svg width="148" height="148" viewBox="0 0 148 148" fill="none" xmlns="http://www.w3.org/2000/svg">
<g filter="url(#filter0_d_920_6001)">
<circle cx="74" cy="70" r="39" fill="white"/>
</g>
<mask id="mask0_920_6001" style="mask-type:luminance" maskUnits="userSpaceOnUse" x="57" y="51" width="36" height="37">
<path d="M57.1338 51H92.9838V87.0874H57.1338V51Z" fill="white"/>
</mask>
<g mask="url(#mask0_920_6001)">
<mask id="mask1_920_6001" style="mask-type:luminance" maskUnits="userSpaceOnUse" x="39" y="50" width="55" height="56">
<path d="M93.2843 51.6112L92.1093 105.196L39.0596 104.033L40.2337 50.4482L93.2843 51.6112Z" fill="white"/>
</mask>
<g mask="url(#mask1_920_6001)">
<mask id="mask2_920_6001" style="mask-type:luminance" maskUnits="userSpaceOnUse" x="39" y="50" width="55" height="56">
<path d="M93.2843 51.6112L92.1093 105.196L39.0596 104.033L40.2337 50.4482L93.2843 51.6112Z" fill="white"/>
</mask>
<g mask="url(#mask2_920_6001)">
<path d="M57.1914 68.7139C57.4065 58.862 65.59 51.0217 75.4345 51.2378C85.2789 51.4529 93.11 59.6429 92.8939 69.4957C92.6787 79.3494 84.4953 87.1879 74.6508 86.9718C64.8063 86.7566 56.9753 78.5648 57.1914 68.7139ZM89.9586 69.4317C89.9688 68.9429 89.9558 68.4542 89.9188 67.9673C89.8817 67.4795 89.8204 66.9945 89.7351 66.5131C89.6507 66.0318 89.5422 65.5551 89.4105 65.084C89.2798 64.6129 89.1249 64.1501 88.9478 63.6938C88.7706 63.2384 88.5722 62.7924 88.3514 62.3556C88.1307 61.9197 87.8886 61.4949 87.6262 61.0831C87.3637 60.6705 87.0818 60.2717 86.7804 59.8868C86.479 59.5019 86.159 59.1328 85.8205 58.7795C85.483 58.427 85.1287 58.0904 84.7577 57.7723C84.3868 57.4542 84.0019 57.1546 83.6012 56.8736C83.2015 56.5936 82.7879 56.333 82.3622 56.0928C81.9365 55.8535 81.4997 55.6346 81.0527 55.438C80.6057 55.2405 80.1503 55.0661 79.6857 54.914C79.2211 54.7619 78.7509 54.633 78.2733 54.5273C77.7966 54.4206 77.3152 54.339 76.8302 54.2797C76.3452 54.2212 75.8583 54.1869 75.3695 54.1758C74.8817 54.1656 74.3939 54.1786 73.9061 54.2157C73.4192 54.2537 72.9351 54.314 72.4538 54.3993C71.9724 54.4837 71.4967 54.5922 71.0265 54.7239C70.5554 54.8556 70.0926 55.0105 69.6372 55.1876C69.1819 55.3647 68.7358 55.5641 68.2999 55.7849C67.864 56.0056 67.4402 56.2476 67.0284 56.5101C66.6157 56.7735 66.2179 57.0554 65.833 57.3577C65.449 57.6591 65.0799 57.9791 64.7275 58.3176C64.3742 58.6552 64.0384 59.0104 63.7203 59.3813C63.4022 59.7523 63.1027 60.1381 62.8226 60.5388C62.5425 60.9394 62.2819 61.353 62.0427 61.7787C61.8025 62.2053 61.5845 62.6421 61.3879 63.0901C61.1913 63.5371 61.016 63.9934 60.8648 64.458C60.7128 64.9236 60.5838 65.3947 60.4772 65.8714C60.3715 66.349 60.2899 66.8303 60.2314 67.3163C60.1721 67.8013 60.1378 68.2891 60.1276 68.7779C60.1164 69.2666 60.1294 69.7554 60.1665 70.2423C60.2045 70.7301 60.2648 71.2151 60.3501 71.6964C60.4345 72.1778 60.543 72.6544 60.6747 73.1256C60.8064 73.5967 60.9604 74.0595 61.1375 74.5158C61.3146 74.9711 61.5131 75.4172 61.7338 75.854C61.9546 76.2899 62.1966 76.7146 62.4591 77.1264C62.7215 77.5391 63.0035 77.9379 63.3049 78.3228C63.6072 78.7077 63.9262 79.0768 64.2647 79.4301C64.6023 79.7834 64.9566 80.1192 65.3275 80.4373C65.6985 80.7554 66.0834 81.0549 66.484 81.3359C66.8837 81.616 67.2974 81.8766 67.723 82.1168C68.1487 82.3561 68.5855 82.575 69.0325 82.7716C69.4796 82.9691 69.9358 83.1435 70.3996 83.2956C70.8642 83.4476 71.3344 83.5766 71.812 83.6832C72.2887 83.7889 72.77 83.8705 73.255 83.9299C73.7401 83.9883 74.227 84.0226 74.7157 84.0338C75.2035 84.044 75.6914 84.0301 76.1782 83.992C76.6651 83.954 77.1492 83.8928 77.6306 83.8075C78.111 83.7222 78.5867 83.6137 79.0569 83.481C79.5271 83.3493 79.9899 83.1945 80.4453 83.0173C80.9006 82.8393 81.3458 82.6399 81.7807 82.4191C82.2166 82.1975 82.6404 81.9564 83.0522 81.693C83.464 81.4305 83.8618 81.1477 84.2467 80.8463C84.6307 80.5439 84.9988 80.224 85.3522 79.8864C85.7046 79.5479 86.0403 79.1936 86.3584 78.8227C86.6765 78.4517 86.9752 78.0659 87.2562 77.6662C87.5362 77.2655 87.7959 76.8519 88.0361 76.4262C88.2754 76.0005 88.4942 75.5637 88.6909 75.1167C88.8884 74.6697 89.0627 74.2134 89.2148 73.7488C89.3669 73.2842 89.4968 72.814 89.6025 72.3363C89.7092 71.8597 89.7917 71.3783 89.8501 70.8924C89.9095 70.4073 89.9447 69.9204 89.9558 69.4317H89.9586Z" fill="#0868DD"/>
</g>
</g>
</g>
<mask id="mask3_920_6001" style="mask-type:luminance" maskUnits="userSpaceOnUse" x="54" y="79" width="9" height="10">
<path d="M54.7593 79.7275H62.8315V88.0371H54.7593V79.7275Z" fill="white"/>
</mask>
<g mask="url(#mask3_920_6001)">
<mask id="mask4_920_6001" style="mask-type:luminance" maskUnits="userSpaceOnUse" x="39" y="50" width="55" height="56">
<path d="M93.2838 51.6112L92.1088 105.196L39.0591 104.033L40.2332 50.4482L93.2838 51.6112Z" fill="white"/>
</mask>
<g mask="url(#mask4_920_6001)">
<mask id="mask5_920_6001" style="mask-type:luminance" maskUnits="userSpaceOnUse" x="39" y="50" width="55" height="56">
<path d="M93.2838 51.6112L92.1088 105.196L39.0591 104.033L40.2332 50.4482L93.2838 51.6112Z" fill="white"/>
</mask>
<g mask="url(#mask5_920_6001)">
<path d="M54.9783 81.5735C54.982 81.4112 55.0089 81.2526 55.059 81.0977C55.11 80.9438 55.1814 80.8 55.2741 80.6665C55.3678 80.5329 55.4781 80.4161 55.6052 80.3159C55.7332 80.2158 55.8723 80.1351 56.0235 80.0766C56.1746 80.0173 56.3314 79.9811 56.4927 79.9681C56.655 79.9552 56.8155 79.9663 56.9741 80.0015C57.1326 80.0358 57.2829 80.0933 57.4248 80.1722C57.5657 80.251 57.6937 80.3493 57.8059 80.4662L62.2872 85.1171C62.3688 85.1932 62.443 85.2766 62.5088 85.3675C62.5738 85.4584 62.6294 85.5549 62.6758 85.6578C62.7212 85.7598 62.7565 85.8655 62.7796 85.975C62.8038 86.0844 62.8167 86.1957 62.8186 86.3079C62.8195 86.4201 62.8102 86.5305 62.7889 86.6409C62.7676 86.7512 62.7351 86.8579 62.6925 86.9617C62.6498 87.0647 62.596 87.163 62.533 87.2557C62.4699 87.3485 62.3985 87.4338 62.3178 87.5117C62.2371 87.5896 62.1499 87.6591 62.0553 87.7185C61.9607 87.7788 61.8615 87.8289 61.7567 87.8687C61.6519 87.9086 61.5443 87.9374 61.433 87.955C61.3227 87.9726 61.2114 87.9782 61.0992 87.9735C60.9879 87.9689 60.8775 87.9522 60.769 87.9244C60.6605 87.8966 60.5557 87.8585 60.4546 87.8094C60.3545 87.7602 60.2589 87.7018 60.1708 87.6332C60.0818 87.5646 60.0011 87.4885 59.9279 87.4032L55.4475 82.7522C55.2936 82.5955 55.1758 82.4146 55.0942 82.2097C55.0135 82.0057 54.9746 81.7933 54.9783 81.5735Z" fill="#0868DD"/>
</g>
</g>
</g>
<mask id="mask6_920_6001" style="mask-type:luminance" maskUnits="userSpaceOnUse" x="39" y="86" width="19" height="18">
<path d="M39.0898 86.375H57.6084V103.944H39.0898V86.375Z" fill="white"/>
</mask>
<g mask="url(#mask6_920_6001)">
<mask id="mask7_920_6001" style="mask-type:luminance" maskUnits="userSpaceOnUse" x="39" y="50" width="55" height="56">
<path d="M93.2838 51.6112L92.1088 105.196L39.0591 104.033L40.2332 50.4482L93.2838 51.6112Z" fill="white"/>
</mask>
<g mask="url(#mask7_920_6001)">
<mask id="mask8_920_6001" style="mask-type:luminance" maskUnits="userSpaceOnUse" x="39" y="50" width="55" height="56">
<path d="M93.2838 51.6112L92.1088 105.196L39.0591 104.033L40.2332 50.4482L93.2838 51.6112Z" fill="white"/>
</mask>
<g mask="url(#mask8_920_6001)">
<path d="M39.1271 100.981C39.1345 100.601 39.2161 100.237 39.371 99.8905C39.5258 99.5436 39.7419 99.2404 40.0192 98.9816L52.6728 87.1451C52.8082 87.019 52.9547 86.9068 53.1115 86.8084C53.2691 86.7111 53.4342 86.6295 53.6076 86.5645C53.7811 86.4996 53.9591 86.4514 54.1418 86.4217C54.3245 86.392 54.5082 86.38 54.6936 86.3865C54.8782 86.392 55.0609 86.4162 55.2417 86.4588C55.4217 86.5005 55.596 86.5599 55.7648 86.6369C55.9336 86.7139 56.0931 86.8057 56.2433 86.9142C56.3936 87.0218 56.5327 87.1442 56.6588 87.2786C56.785 87.414 56.8972 87.5606 56.9945 87.7182C57.0929 87.8759 57.1735 88.041 57.2385 88.2144C57.3043 88.3878 57.3516 88.5668 57.3813 88.7495C57.4119 88.9322 57.423 89.1158 57.4174 89.3013C57.411 89.4868 57.3868 89.6695 57.3442 89.8494C57.3024 90.0303 57.2431 90.2046 57.1661 90.3734C57.0901 90.5422 56.9973 90.7017 56.8897 90.8529C56.7812 91.0031 56.6597 91.1413 56.5253 91.2684L43.8717 103.104C43.6686 103.294 43.4432 103.45 43.1947 103.573C42.9452 103.696 42.6846 103.78 42.411 103.826C42.1374 103.872 41.8629 103.877 41.5875 103.842C41.312 103.807 41.0487 103.732 40.7945 103.619C40.5414 103.506 40.3104 103.358 40.1008 103.176C39.8912 102.995 39.7123 102.787 39.5639 102.552C39.4155 102.318 39.3042 102.066 39.23 101.798C39.1549 101.531 39.1215 101.258 39.1271 100.981Z" fill="#0868DD"/>
</g>
</g>
</g>
<mask id="mask9_920_6001" style="mask-type:luminance" maskUnits="userSpaceOnUse" x="62" y="56" width="20" height="18">
<path d="M62.3564 56.4609H81.8246V73.555H62.3564V56.4609Z" fill="white"/>
</mask>
<g mask="url(#mask9_920_6001)">
<mask id="mask10_920_6001" style="mask-type:luminance" maskUnits="userSpaceOnUse" x="39" y="50" width="55" height="56">
<path d="M93.2838 51.6112L92.1088 105.196L39.0591 104.033L40.2332 50.4482L93.2838 51.6112Z" fill="white"/>
</mask>
<g mask="url(#mask10_920_6001)">
<mask id="mask11_920_6001" style="mask-type:luminance" maskUnits="userSpaceOnUse" x="39" y="50" width="55" height="56">
<path d="M93.2838 51.6112L92.1088 105.196L39.0591 104.033L40.2332 50.4482L93.2838 51.6112Z" fill="white"/>
</mask>
<g mask="url(#mask11_920_6001)">
<path d="M62.4687 68.8C62.5197 66.4981 63.2449 63.4701 65.8194 60.2687C68.0777 57.4587 71.4859 56.215 75.6722 56.6713C77.6077 56.8892 79.4663 57.3928 81.2488 58.1802C81.3536 58.2303 81.4444 58.2989 81.5223 58.3861C81.6002 58.4723 81.6577 58.5706 81.6967 58.681C81.7356 58.7904 81.7523 58.9036 81.7459 59.0204C81.7403 59.1363 81.7125 59.2476 81.6624 59.3524C81.6123 59.4581 81.5446 59.55 81.4584 59.6279C81.3721 59.7058 81.2738 59.7651 81.1644 59.8041C81.0549 59.844 80.9418 59.8606 80.8259 59.8551C80.709 59.8504 80.5986 59.8226 80.4929 59.7735C78.8755 59.0686 77.1913 58.6179 75.4385 58.4194C71.8513 58.0401 69.0802 59.0343 67.1957 61.3742C62.5475 67.1529 64.7724 72.2286 64.7956 72.2796C64.8466 72.3872 64.8753 72.4994 64.8818 72.6181C64.8874 72.7359 64.8707 72.8509 64.8299 72.9622C64.79 73.0744 64.7288 73.1736 64.649 73.2608C64.5684 73.347 64.4747 73.4157 64.3662 73.4648C64.2586 73.514 64.1455 73.5399 64.0277 73.5437C63.909 73.5474 63.7949 73.527 63.6836 73.4843C63.5733 73.4416 63.4759 73.3795 63.3906 73.297C63.3052 73.2154 63.2394 73.1189 63.1921 73.0104C63.13 72.8833 62.4149 71.2548 62.4687 68.8Z" fill="#0868DD"/>
</g>
</g>
</g>
<mask id="mask12_920_6001" style="mask-type:luminance" maskUnits="userSpaceOnUse" x="85" y="29" width="29" height="29">
<path d="M85.2539 29H113.686V57.4316H85.2539V29Z" fill="white"/>
</mask>
<g mask="url(#mask12_920_6001)">
<path d="M113.686 29.0029V57.4285C113.686 56.4599 113.637 55.4929 113.539 54.5273C113.442 53.5799 113.299 52.6385 113.108 51.7047C112.921 50.789 112.685 49.8718 112.407 48.9803C112.134 48.0979 111.812 47.22 111.452 46.3677C110.734 44.6739 109.86 43.0631 108.831 41.5385C107.808 40.0259 106.65 38.6222 105.358 37.3302C104.066 36.0398 102.664 34.8824 101.15 33.8594C99.6253 32.8289 98.0161 31.9555 96.3207 31.2377C95.47 30.8781 94.5906 30.5563 93.7096 30.2813C92.8166 30.0047 91.9009 29.769 90.9837 29.5817C90.0499 29.3898 89.1101 29.2462 88.1611 29.1495C87.1941 29.0528 86.2255 29.0029 85.2539 29.0029H113.686Z" fill="#F95147"/>
</g>
<defs>
<filter id="filter0_d_920_6001" x="0" y="0" width="148" height="148" filterUnits="userSpaceOnUse" color-interpolation-filters="sRGB">
<feFlood flood-opacity="0" result="BackgroundImageFix"/>
<feColorMatrix in="SourceAlpha" type="matrix" values="0 0 0 0 0 0 0 0 0 0 0 0 0 0 0 0 0 0 127 0" result="hardAlpha"/>
<feOffset dy="4"/>
<feGaussianBlur stdDeviation="17.5"/>
<feComposite in2="hardAlpha" operator="out"/>
<feColorMatrix type="matrix" values="0 0 0 0 0 0 0 0 0 0 0 0 0 0 0 0 0 0 0.15 0"/>
<feBlend mode="normal" in2="BackgroundImageFix" result="effect1_dropShadow_920_6001"/>
<feBlend mode="normal" in="SourceGraphic" in2="effect1_dropShadow_920_6001" result="shape"/>
</filter>
</defs>
</svg>
