<svg width="85" height="115" viewBox="0 0 85 115" fill="none" xmlns="http://www.w3.org/2000/svg">
<circle cx="80" cy="5" r="5" transform="rotate(90 80 5)" fill="#D9D9D9" fill-opacity="0.35"/>
<circle cx="80" cy="65" r="5" transform="rotate(90 80 65)" fill="#D9D9D9" fill-opacity="0.35"/>
<circle cx="80" cy="35" r="5" transform="rotate(90 80 35)" fill="#D9D9D9" fill-opacity="0.35"/>
<circle cx="80" cy="95" r="5" transform="rotate(90 80 95)" fill="#D9D9D9" fill-opacity="0.35"/>
<circle cx="80" cy="20" r="5" transform="rotate(90 80 20)" fill="#D9D9D9" fill-opacity="0.35"/>
<circle cx="80" cy="80" r="5" transform="rotate(90 80 80)" fill="#D9D9D9" fill-opacity="0.35"/>
<circle cx="80" cy="50" r="5" transform="rotate(90 80 50)" fill="#D9D9D9" fill-opacity="0.35"/>
<circle cx="80" cy="110" r="5" transform="rotate(90 80 110)" fill="#D9D9D9" fill-opacity="0.35"/>
<circle cx="35" cy="5" r="5" transform="rotate(90 35 5)" fill="#D9D9D9" fill-opacity="0.35"/>
<circle cx="35" cy="65" r="5" transform="rotate(90 35 65)" fill="#D9D9D9" fill-opacity="0.35"/>
<circle cx="35" cy="35" r="5" transform="rotate(90 35 35)" fill="#D9D9D9" fill-opacity="0.35"/>
<circle cx="35" cy="95" r="5" transform="rotate(90 35 95)" fill="#D9D9D9" fill-opacity="0.35"/>
<circle cx="35" cy="20" r="5" transform="rotate(90 35 20)" fill="#D9D9D9" fill-opacity="0.35"/>
<circle cx="35" cy="80" r="5" transform="rotate(90 35 80)" fill="#D9D9D9" fill-opacity="0.35"/>
<circle cx="35" cy="50" r="5" transform="rotate(90 35 50)" fill="#D9D9D9" fill-opacity="0.35"/>
<circle cx="35" cy="110" r="5" transform="rotate(90 35 110)" fill="#D9D9D9" fill-opacity="0.35"/>
<circle cx="65" cy="5" r="5" transform="rotate(90 65 5)" fill="#D9D9D9" fill-opacity="0.35"/>
<circle cx="65" cy="65" r="5" transform="rotate(90 65 65)" fill="#D9D9D9" fill-opacity="0.35"/>
<circle cx="65" cy="35" r="5" transform="rotate(90 65 35)" fill="#D9D9D9" fill-opacity="0.35"/>
<circle cx="65" cy="95" r="5" transform="rotate(90 65 95)" fill="#D9D9D9" fill-opacity="0.35"/>
<circle cx="65" cy="20" r="5" transform="rotate(90 65 20)" fill="#D9D9D9" fill-opacity="0.35"/>
<circle cx="65" cy="80" r="5" transform="rotate(90 65 80)" fill="#D9D9D9" fill-opacity="0.35"/>
<circle cx="65" cy="50" r="5" transform="rotate(90 65 50)" fill="#D9D9D9" fill-opacity="0.35"/>
<circle cx="65" cy="110" r="5" transform="rotate(90 65 110)" fill="#D9D9D9" fill-opacity="0.35"/>
<circle cx="20" cy="5" r="5" transform="rotate(90 20 5)" fill="#D9D9D9" fill-opacity="0.35"/>
<circle cx="20" cy="65" r="5" transform="rotate(90 20 65)" fill="#D9D9D9" fill-opacity="0.35"/>
<circle cx="20" cy="35" r="5" transform="rotate(90 20 35)" fill="#D9D9D9" fill-opacity="0.35"/>
<circle cx="20" cy="95" r="5" transform="rotate(90 20 95)" fill="#D9D9D9" fill-opacity="0.35"/>
<circle cx="20" cy="20" r="5" transform="rotate(90 20 20)" fill="#D9D9D9" fill-opacity="0.35"/>
<circle cx="20" cy="80" r="5" transform="rotate(90 20 80)" fill="#D9D9D9" fill-opacity="0.35"/>
<circle cx="20" cy="50" r="5" transform="rotate(90 20 50)" fill="#D9D9D9" fill-opacity="0.35"/>
<circle cx="20" cy="110" r="5" transform="rotate(90 20 110)" fill="#D9D9D9" fill-opacity="0.35"/>
<circle cx="50" cy="5" r="5" transform="rotate(90 50 5)" fill="#D9D9D9" fill-opacity="0.35"/>
<circle cx="50" cy="65" r="5" transform="rotate(90 50 65)" fill="#D9D9D9" fill-opacity="0.35"/>
<circle cx="50" cy="35" r="5" transform="rotate(90 50 35)" fill="#D9D9D9" fill-opacity="0.35"/>
<circle cx="50" cy="95" r="5" transform="rotate(90 50 95)" fill="#D9D9D9" fill-opacity="0.35"/>
<circle cx="50" cy="20" r="5" transform="rotate(90 50 20)" fill="#D9D9D9" fill-opacity="0.35"/>
<circle cx="50" cy="80" r="5" transform="rotate(90 50 80)" fill="#D9D9D9" fill-opacity="0.35"/>
<circle cx="50" cy="50" r="5" transform="rotate(90 50 50)" fill="#D9D9D9" fill-opacity="0.35"/>
<circle cx="50" cy="110" r="5" transform="rotate(90 50 110)" fill="#D9D9D9" fill-opacity="0.35"/>
<circle cx="5" cy="5" r="5" transform="rotate(90 5 5)" fill="#D9D9D9" fill-opacity="0.35"/>
<circle cx="5" cy="65" r="5" transform="rotate(90 5 65)" fill="#D9D9D9" fill-opacity="0.35"/>
<circle cx="5" cy="35" r="5" transform="rotate(90 5 35)" fill="#D9D9D9" fill-opacity="0.35"/>
<circle cx="5" cy="95" r="5" transform="rotate(90 5 95)" fill="#D9D9D9" fill-opacity="0.35"/>
<circle cx="5" cy="20" r="5" transform="rotate(90 5 20)" fill="#D9D9D9" fill-opacity="0.35"/>
<circle cx="5" cy="80" r="5" transform="rotate(90 5 80)" fill="#D9D9D9" fill-opacity="0.35"/>
<circle cx="5" cy="50" r="5" transform="rotate(90 5 50)" fill="#D9D9D9" fill-opacity="0.35"/>
<circle cx="5" cy="110" r="5" transform="rotate(90 5 110)" fill="#D9D9D9" fill-opacity="0.35"/>
</svg>
