<svg width="17" height="15" viewBox="0 0 17 15" fill="none" xmlns="http://www.w3.org/2000/svg">
<path d="M11.4556 4.44385C12.3188 4.44385 13.0493 3.8877 13.3315 3.12402H16.2036C16.5439 3.12402 16.8428 2.8252 16.8428 2.45166C16.8428 2.07812 16.5439 1.7876 16.2036 1.7876H13.3315C13.0576 1.01562 12.3188 0.451172 11.4556 0.451172C10.5923 0.451172 9.84521 1.01562 9.57129 1.7876H0.780762C0.407227 1.7876 0.116699 2.07812 0.116699 2.45166C0.116699 2.8252 0.407227 3.12402 0.780762 3.12402H9.57959C9.85352 3.8877 10.5923 4.44385 11.4556 4.44385ZM11.4556 3.42285C10.9077 3.42285 10.4844 2.99121 10.4844 2.44336C10.4844 1.89551 10.9077 1.47217 11.4556 1.47217C12.0034 1.47217 12.4268 1.89551 12.4268 2.44336C12.4268 2.99121 12.0034 3.42285 11.4556 3.42285ZM0.747559 6.85107C0.407227 6.85107 0.116699 7.1499 0.116699 7.52344C0.116699 7.89697 0.407227 8.1875 0.747559 8.1875H3.71924C3.99316 8.96777 4.73193 9.52393 5.59521 9.52393C6.4585 9.52393 7.19727 8.96777 7.47949 8.1875H16.1704C16.5439 8.1875 16.8428 7.89697 16.8428 7.52344C16.8428 7.1499 16.5439 6.85107 16.1704 6.85107H7.47119C7.19727 6.0874 6.4585 5.53125 5.59521 5.53125C4.73193 5.53125 3.99316 6.0874 3.71924 6.85107H0.747559ZM5.59521 8.49463C5.05566 8.49463 4.62402 8.06299 4.62402 7.52344C4.62402 6.97559 5.05566 6.55225 5.59521 6.55225C6.14307 6.55225 6.56641 6.97559 6.56641 7.52344C6.56641 8.06299 6.14307 8.49463 5.59521 8.49463ZM11.4556 14.5874C12.3188 14.5874 13.0576 14.0312 13.3315 13.2593H16.2036C16.5439 13.2593 16.8428 12.9688 16.8428 12.5952C16.8428 12.2217 16.5439 11.9229 16.2036 11.9229H13.3315C13.0576 11.1509 12.3188 10.603 11.4556 10.603C10.5923 10.603 9.85352 11.1509 9.57959 11.9229H0.780762C0.407227 11.9229 0.116699 12.2217 0.116699 12.5952C0.116699 12.9688 0.407227 13.2593 0.780762 13.2593H9.57129C9.85352 14.0312 10.5923 14.5874 11.4556 14.5874ZM11.4556 13.5664C10.9077 13.5664 10.4844 13.1348 10.4844 12.5952C10.4844 12.0391 10.9077 11.624 11.4556 11.624C12.0034 11.624 12.4268 12.0391 12.4268 12.5952C12.4268 13.1348 12.0034 13.5664 11.4556 13.5664Z" fill="#3C3C43" fill-opacity="0.6"/>
</svg>
