<svg width="26" height="26" viewBox="0 0 26 26" fill="none" xmlns="http://www.w3.org/2000/svg">
<g clip-path="url(#clip0_1_3167)">
<path d="M13.6121 11.2641V11.2062H25.4635C25.5814 11.6692 25.6404 12.3636 25.6404 13.2896C25.6404 16.8775 24.5299 19.7807 22.309 21.9991C20.0881 24.2174 17.1695 25.3266 13.5531 25.3266C10.094 25.3266 7.13604 24.1306 4.67928 21.7386C2.22252 19.3467 0.994141 16.4339 0.994141 13.0002C0.994141 9.56658 2.21269 6.65377 4.6498 4.26179C7.08691 1.86982 10.0547 0.673828 13.5531 0.673828C16.9729 0.673828 19.8031 1.77337 22.0437 3.97244L18.6828 7.21318C17.3857 5.94003 15.6954 5.30346 13.6121 5.30346C11.4894 5.30346 9.67142 6.06542 8.15806 7.58934C6.64469 9.11326 5.88801 10.9458 5.88801 13.087C5.88801 15.2282 6.64469 17.0511 8.15806 18.5558C9.67142 20.0604 11.4894 20.8127 13.6121 20.8127C14.8306 20.8127 15.9116 20.6295 16.855 20.2629C17.7984 19.8964 18.5354 19.4238 19.0661 18.8451C19.5967 18.2664 19.9996 17.6974 20.2748 17.1379C20.55 16.5785 20.7465 16.0481 20.8644 15.5465H13.6121V11.2641Z" fill="#0868DD"/>
</g>
<defs>
<clipPath id="clip0_1_3167">
<rect width="25" height="25" fill="white" transform="translate(0.994141 0.5)"/>
</clipPath>
</defs>
</svg>
